<svg id="g-arvore-decisao-light" width="863.0565795898438" xmlns="http://www.w3.org/2000/svg" class="flowchart" height="1412.373291015625" viewBox="0 0 863.0565795898438 1412.373291015625" role="graphics-document document" aria-roledescription="flowchart-v2"><style>#g-arvore-decisao-light{font-family:ui-sans-serif,system-ui,sans-serif;font-size:16px;fill:#000000;}@keyframes edge-animation-frame{from{stroke-dashoffset:0;}}@keyframes dash{to{stroke-dashoffset:0;}}#g-arvore-decisao-light .edge-animation-slow{stroke-dasharray:9,5!important;stroke-dashoffset:900;animation:dash 50s linear infinite;stroke-linecap:round;}#g-arvore-decisao-light .edge-animation-fast{stroke-dasharray:9,5!important;stroke-dashoffset:900;animation:dash 20s linear infinite;stroke-linecap:round;}#g-arvore-decisao-light .error-icon{fill:#552222;}#g-arvore-decisao-light .error-text{fill:#552222;stroke:#552222;}#g-arvore-decisao-light .edge-thickness-normal{stroke-width:1px;}#g-arvore-decisao-light .edge-thickness-thick{stroke-width:3.5px;}#g-arvore-decisao-light .edge-pattern-solid{stroke-dasharray:0;}#g-arvore-decisao-light .edge-thickness-invisible{stroke-width:0;fill:none;}#g-arvore-decisao-light .edge-pattern-dashed{stroke-dasharray:3;}#g-arvore-decisao-light .edge-pattern-dotted{stroke-dasharray:2;}#g-arvore-decisao-light .marker{fill:#666;stroke:#666;}#g-arvore-decisao-light .marker.cross{stroke:#666;}#g-arvore-decisao-light svg{font-family:ui-sans-serif,system-ui,sans-serif;font-size:16px;}#g-arvore-decisao-light p{margin:0;}#g-arvore-decisao-light .label{font-family:ui-sans-serif,system-ui,sans-serif;color:#000000;}#g-arvore-decisao-light .cluster-label text{fill:#333;}#g-arvore-decisao-light .cluster-label span{color:#333;}#g-arvore-decisao-light .cluster-label span p{background-color:transparent;}#g-arvore-decisao-light .label text,#g-arvore-decisao-light span{fill:#000000;color:#000000;}#g-arvore-decisao-light .node rect,#g-arvore-decisao-light .node circle,#g-arvore-decisao-light .node ellipse,#g-arvore-decisao-light .node polygon,#g-arvore-decisao-light .node path{fill:#eee;stroke:#999;stroke-width:1px;}#g-arvore-decisao-light .rough-node .label text,#g-arvore-decisao-light .node .label text,#g-arvore-decisao-light .image-shape .label,#g-arvore-decisao-light .icon-shape .label{text-anchor:middle;}#g-arvore-decisao-light .node .katex path{fill:#000;stroke:#000;stroke-width:1px;}#g-arvore-decisao-light .rough-node .label,#g-arvore-decisao-light .node .label,#g-arvore-decisao-light .image-shape .label,#g-arvore-decisao-light .icon-shape .label{text-align:center;}#g-arvore-decisao-light .node.clickable{cursor:pointer;}#g-arvore-decisao-light .root .anchor path{fill:#666!important;stroke-width:0;stroke:#666;}#g-arvore-decisao-light .arrowheadPath{fill:#333333;}#g-arvore-decisao-light .edgePath .path{stroke:#666;stroke-width:2.0px;}#g-arvore-decisao-light .flowchart-link{stroke:#666;fill:none;}#g-arvore-decisao-light .edgeLabel{background-color:white;text-align:center;}#g-arvore-decisao-light .edgeLabel p{background-color:white;}#g-arvore-decisao-light .edgeLabel rect{opacity:0.5;background-color:white;fill:white;}#g-arvore-decisao-light .labelBkg{background-color:rgba(255, 255, 255, 0.5);}#g-arvore-decisao-light .cluster rect{fill:hsl(0, 0%, 98.9215686275%);stroke:#707070;stroke-width:1px;}#g-arvore-decisao-light .cluster text{fill:#333;}#g-arvore-decisao-light .cluster span{color:#333;}#g-arvore-decisao-light div.mermaidTooltip{position:absolute;text-align:center;max-width:200px;padding:2px;font-family:ui-sans-serif,system-ui,sans-serif;font-size:12px;background:hsl(-160, 0%, 93.3333333333%);border:1px solid #707070;border-radius:2px;pointer-events:none;z-index:100;}#g-arvore-decisao-light .flowchartTitleText{text-anchor:middle;font-size:18px;fill:#000000;}#g-arvore-decisao-light rect.text{fill:none;stroke-width:0;}#g-arvore-decisao-light .icon-shape,#g-arvore-decisao-light .image-shape{background-color:white;text-align:center;}#g-arvore-decisao-light .icon-shape p,#g-arvore-decisao-light .image-shape p{background-color:white;padding:2px;}#g-arvore-decisao-light .icon-shape rect,#g-arvore-decisao-light .image-shape rect{opacity:0.5;background-color:white;fill:white;}#g-arvore-decisao-light :root{--mermaid-font-family:ui-sans-serif,system-ui,sans-serif;}</style><g><marker id="g-arvore-decisao-light_flowchart-v2-pointEnd" class="marker flowchart-v2" viewBox="0 0 10 10" refX="5" refY="5" markerUnits="userSpaceOnUse" markerWidth="8" markerHeight="8" orient="auto"><path d="M 0 0 L 10 5 L 0 10 z" class="arrowMarkerPath" style="stroke-width: 1; stroke-dasharray: 1, 0;"></path></marker><marker id="g-arvore-decisao-light_flowchart-v2-pointStart" class="marker flowchart-v2" viewBox="0 0 10 10" refX="4.5" refY="5" markerUnits="userSpaceOnUse" markerWidth="8" markerHeight="8" orient="auto"><path d="M 0 5 L 10 10 L 10 0 z" class="arrowMarkerPath" style="stroke-width: 1; stroke-dasharray: 1, 0;"></path></marker><marker id="g-arvore-decisao-light_flowchart-v2-circleEnd" class="marker flowchart-v2" viewBox="0 0 10 10" refX="11" refY="5" markerUnits="userSpaceOnUse" markerWidth="11" markerHeight="11" orient="auto"><circle cx="5" cy="5" r="5" class="arrowMarkerPath" style="stroke-width: 1; stroke-dasharray: 1, 0;"></circle></marker><marker id="g-arvore-decisao-light_flowchart-v2-circleStart" class="marker flowchart-v2" viewBox="0 0 10 10" refX="-1" refY="5" markerUnits="userSpaceOnUse" markerWidth="11" markerHeight="11" orient="auto"><circle cx="5" cy="5" r="5" class="arrowMarkerPath" style="stroke-width: 1; stroke-dasharray: 1, 0;"></circle></marker><marker id="g-arvore-decisao-light_flowchart-v2-crossEnd" class="marker cross flowchart-v2" viewBox="0 0 11 11" refX="12" refY="5.2" markerUnits="userSpaceOnUse" markerWidth="11" markerHeight="11" orient="auto"><path d="M 1,1 l 9,9 M 10,1 l -9,9" class="arrowMarkerPath" style="stroke-width: 2; stroke-dasharray: 1, 0;"></path></marker><marker id="g-arvore-decisao-light_flowchart-v2-crossStart" class="marker cross flowchart-v2" viewBox="0 0 11 11" refX="-1" refY="5.2" markerUnits="userSpaceOnUse" markerWidth="11" markerHeight="11" orient="auto"><path d="M 1,1 l 9,9 M 10,1 l -9,9" class="arrowMarkerPath" style="stroke-width: 2; stroke-dasharray: 1, 0;"></path></marker><g class="root"><g class="clusters"></g><g class="edgePaths"><path d="M452.862,41L452.862,45.583C452.862,50.167,452.862,59.333,452.934,67.917C453.005,76.5,453.148,84.5,453.22,88.501L453.291,92.501" id="L_S_Q1_0" class=" edge-thickness-normal edge-pattern-solid edge-thickness-normal edge-pattern-solid flowchart-link" style="" marker-end="url(#g-arvore-decisao-light_flowchart-v2-pointEnd)"></path><path d="M393.979,325.823L382.436,342.137C370.893,358.451,347.808,391.079,336.265,413.226C324.722,435.373,324.722,447.04,324.722,452.873L324.722,458.706" id="L_Q1_INV_0" class=" edge-thickness-normal edge-pattern-solid edge-thickness-normal edge-pattern-solid flowchart-link" style="" marker-end="url(#g-arvore-decisao-light_flowchart-v2-pointEnd)"></path><path d="M324.722,527.306L324.722,531.89C324.722,536.473,324.722,545.64,333.939,554.524C343.156,563.409,361.59,572.012,370.808,576.313L380.025,580.615" id="L_INV_RC_0" class=" edge-thickness-normal edge-pattern-solid edge-thickness-normal edge-pattern-solid flowchart-link" style="" marker-end="url(#g-arvore-decisao-light_flowchart-v2-pointEnd)"></path><path d="M470.631,367.938L471.822,377.233C473.013,386.527,475.395,405.117,476.586,426.295C477.777,447.473,477.777,471.24,477.777,493.09C477.777,514.94,477.777,534.873,476.123,548.808C474.47,562.742,471.164,570.678,469.511,574.646L467.858,578.614" id="L_Q1_RC_0" class=" edge-thickness-normal edge-pattern-solid edge-thickness-normal edge-pattern-solid flowchart-link" style="" marker-end="url(#g-arvore-decisao-light_flowchart-v2-pointEnd)"></path><path d="M338.847,642.206L316.677,647.573C294.508,652.94,250.169,663.673,228.071,673.04C205.973,682.406,206.115,690.407,206.187,694.407L206.258,698.407" id="L_RC_Q2_0" class=" edge-thickness-normal edge-pattern-solid edge-thickness-normal edge-pattern-solid flowchart-link" style="" marker-end="url(#g-arvore-decisao-light_flowchart-v2-pointEnd)"></path><path d="M165.722,838.97L154.409,852.155C143.096,865.34,120.47,891.709,109.232,910.81C97.994,929.912,98.143,941.745,98.218,947.662L98.293,953.578" id="L_Q2_FIN1_0" class=" edge-thickness-normal edge-pattern-solid edge-thickness-normal edge-pattern-solid flowchart-link" style="" marker-end="url(#g-arvore-decisao-light_flowchart-v2-pointEnd)"></path><path d="M246.937,838.97L258.084,852.155C269.23,865.34,291.523,891.709,302.669,911.027C313.816,930.345,313.816,942.611,313.816,948.745L313.816,954.878" id="L_Q2_HR_0" class=" edge-thickness-normal edge-pattern-solid edge-thickness-normal edge-pattern-solid flowchart-link" style="" marker-end="url(#g-arvore-decisao-light_flowchart-v2-pointEnd)"></path><path d="M313.816,1005.878L313.816,1010.761C313.816,1015.645,313.816,1025.411,319.547,1039.988C325.278,1054.564,336.741,1073.949,342.472,1083.642L348.203,1093.335" id="L_HR_Q3_0" class=" edge-thickness-normal edge-pattern-solid edge-thickness-normal edge-pattern-solid flowchart-link" style="" marker-end="url(#g-arvore-decisao-light_flowchart-v2-pointEnd)"></path><path d="M329.484,1190.318L303.97,1207.26C278.457,1224.203,227.431,1258.088,201.996,1285.047C176.561,1312.007,176.717,1332.04,176.795,1342.057L176.873,1352.073" id="L_Q3_FIN2_0" class=" edge-thickness-normal edge-pattern-solid edge-thickness-normal edge-pattern-solid flowchart-link" style="" marker-end="url(#g-arvore-decisao-light_flowchart-v2-pointEnd)"></path><path d="M356.339,1217.174L350.799,1229.64C345.259,1242.107,334.18,1267.04,328.718,1289.523C323.256,1312.007,323.412,1332.04,323.49,1342.057L323.568,1352.073" id="L_Q3_FIN3_0" class=" edge-thickness-normal edge-pattern-solid edge-thickness-normal edge-pattern-solid flowchart-link" style="" marker-end="url(#g-arvore-decisao-light_flowchart-v2-pointEnd)"></path><path d="M417.439,1096.778L423.343,1086.511C429.247,1076.245,441.055,1055.711,446.959,1036.645C452.862,1017.578,452.862,999.978,452.862,980.461C452.862,960.945,452.862,939.511,452.862,907.53C452.862,875.549,452.862,833.021,452.862,792.409C452.862,751.797,452.862,713.102,452.862,689.837C452.862,666.573,452.862,658.74,452.862,654.823L452.862,650.906" id="L_Q3_RC_0" class=" edge-thickness-normal edge-pattern-solid edge-thickness-normal edge-pattern-solid flowchart-link" style="" marker-end="url(#g-arvore-decisao-light_flowchart-v2-pointEnd)"></path><path d="M420.622,1207.89L430.148,1221.904C439.674,1235.918,458.725,1263.946,473.973,1285.398C489.222,1306.85,500.667,1321.726,506.389,1329.165L512.112,1336.603" id="L_Q3_BACK_0" class=" edge-thickness-normal edge-pattern-solid edge-thickness-normal edge-pattern-solid flowchart-link" style="" marker-end="url(#g-arvore-decisao-light_flowchart-v2-pointEnd)"></path><path d="M558.51,1339.773L563.224,1331.807C567.937,1323.84,577.364,1307.907,582.078,1276.849C586.791,1245.791,586.791,1199.608,586.791,1156.809C586.791,1114.01,586.791,1074.594,586.791,1046.086C586.791,1017.578,586.791,999.978,586.791,980.461C586.791,960.945,586.791,939.511,586.791,907.53C586.791,875.549,586.791,833.021,586.791,792.409C586.791,751.797,586.791,713.102,577.135,689.442C567.479,665.783,548.166,657.16,538.51,652.849L528.854,648.537" id="L_BACK_RC_0" class=" edge-thickness-normal edge-pattern-solid edge-thickness-normal edge-pattern-solid flowchart-link" style="" marker-end="url(#g-arvore-decisao-light_flowchart-v2-pointEnd)"></path><path d="M449.974,1178.538L500.915,1197.444C551.856,1216.35,653.737,1254.162,704.756,1281.618C755.774,1309.073,755.928,1326.173,756.006,1334.723L756.083,1343.273" id="L_Q3_FIN4_0" class=" edge-thickness-normal edge-pattern-dotted edge-thickness-normal edge-pattern-solid flowchart-link" style="" marker-end="url(#g-arvore-decisao-light_flowchart-v2-pointEnd)"></path></g><g class="edgeLabels"><g><rect class="background" style="stroke: none"></rect></g><g><rect class="background" style="stroke: none"></rect></g><g><rect class="background" style="stroke: none"></rect></g><g><rect class="background" style="stroke: none"></rect></g><g><rect class="background" style="stroke: none"></rect></g><g class="edgeLabel"><g class="label" transform="translate(0, 0)"><text y="-10.1"><tspan class="text-outer-tspan" x="0" y="-0.1em" dy="1.1em"></tspan></text></g></g><g class="edgeLabel" transform="translate(324.7218475341797, 423.70623779296875)"><g class="label" transform="translate(-14.8515625, -11.5)"><g><rect class="background" style="" x="-2" y="-1" width="29.703125" height="23"></rect><text y="-10.1" style=""><tspan class="text-outer-tspan" x="0" y="-0.1em" dy="1.1em"><tspan font-style="normal" class="text-inner-tspan" font-weight="normal">sim</tspan></tspan></text></g></g></g><g class="edgeLabel"><g class="label" transform="translate(0, 0)"><text y="-10.1"><tspan class="text-outer-tspan" x="0" y="-0.1em" dy="1.1em"></tspan></text></g></g><g class="edgeLabel" transform="translate(477.7765350341797, 495.0062370300293)"><g class="label" transform="translate(-15.71875, -11.5)"><g><rect class="background" style="" x="-2" y="-1" width="31.4375" height="23"></rect><text y="-10.1" style=""><tspan class="text-outer-tspan" x="0" y="-0.1em" dy="1.1em"><tspan font-style="normal" class="text-inner-tspan" font-weight="normal">não</tspan></tspan></text></g></g></g><g class="edgeLabel"><g class="label" transform="translate(0, 0)"><text y="-10.1"><tspan class="text-outer-tspan" x="0" y="-0.1em" dy="1.1em"></tspan></text></g></g><g class="edgeLabel" transform="translate(97.84375, 918.0781097412109)"><g class="label" transform="translate(-17.7734375, -11.5)"><g><rect class="background" style="" x="-2" y="-1" width="35.546875" height="23"></rect><text y="-10.1" style=""><tspan class="text-outer-tspan" x="0" y="-0.1em" dy="1.1em"><tspan font-style="normal" class="text-inner-tspan" font-weight="normal">LOW</tspan></tspan></text></g></g></g><g class="edgeLabel" transform="translate(313.8155975341797, 918.0781097412109)"><g class="label" transform="translate(-63.40625, -11.5)"><g><rect class="background" style="" x="-2" y="-1" width="126.8125" height="23"></rect><text y="-10.1" style=""><tspan class="text-outer-tspan" x="0" y="-0.1em" dy="1.1em"><tspan font-style="normal" class="text-inner-tspan" font-weight="normal">MEDIUM</tspan><tspan font-style="normal" class="text-inner-tspan" font-weight="normal"> ou</tspan><tspan font-style="normal" class="text-inner-tspan" font-weight="normal"> HIGH</tspan></tspan></text></g></g></g><g class="edgeLabel"><g class="label" transform="translate(0, 0)"><text y="-10.1"><tspan class="text-outer-tspan" x="0" y="-0.1em" dy="1.1em"></tspan></text></g></g><g class="edgeLabel" transform="translate(176.404296875, 1291.973331451416)"><g class="label" transform="translate(-34.875, -11.5)"><g><rect class="background" style="" x="-2" y="-1" width="69.75" height="23"></rect><text y="-10.1" style=""><tspan class="text-outer-tspan" x="0" y="-0.1em" dy="1.1em"><tspan font-style="normal" class="text-inner-tspan" font-weight="normal">APPROVE</tspan></tspan></text></g></g></g><g class="edgeLabel" transform="translate(323.099609375, 1291.973331451416)"><g class="label" transform="translate(-26.596038818359375, -11.5)"><g><rect class="background" style="" x="-2" y="-1" width="53.19207763671875" height="23"></rect><text y="-10.1" style=""><tspan class="text-outer-tspan" x="0" y="-0.1em" dy="1.1em"><tspan font-style="normal" class="text-inner-tspan" font-weight="normal">REJECT</tspan></tspan></text></g></g></g><g class="edgeLabel" transform="translate(452.8624725341797, 918.0781097412109)"><g class="label" transform="translate(-55.640625, -11.5)"><g><rect class="background" style="" x="-2" y="-1" width="111.28125" height="23"></rect><text y="-10.1" style=""><tspan class="text-outer-tspan" x="0" y="-0.1em" dy="1.1em"><tspan font-style="normal" class="text-inner-tspan" font-weight="normal">RETURN</tspan><tspan font-style="normal" class="text-inner-tspan" font-weight="normal"> +</tspan><tspan font-style="normal" class="text-inner-tspan" font-weight="normal"> nota</tspan></tspan></text></g></g></g><g class="edgeLabel" transform="translate(477.7765350341797, 1291.973331451416)"><g class="label" transform="translate(-73.8828125, -20.299999237060547)"><g><rect class="background" style="" x="-2" y="-1" width="147.765625" height="40.599998474121094"></rect><text y="-10.1" style=""><tspan class="text-outer-tspan" x="0" y="-0.1em" dy="1.1em"><tspan font-style="normal" class="text-inner-tspan" font-weight="normal">RETURN</tspan><tspan font-style="normal" class="text-inner-tspan" font-weight="normal"> +</tspan><tspan font-style="normal" class="text-inner-tspan" font-weight="normal"> evidência</tspan></tspan><tspan class="text-outer-tspan" x="0" y="1em" dy="1.1em"><tspan font-style="normal" class="text-inner-tspan" font-weight="normal">ausente</tspan></tspan></text></g></g></g><g class="edgeLabel"><g class="label" transform="translate(0, 0)"><text y="-10.1"><tspan class="text-outer-tspan" x="0" y="-0.1em" dy="1.1em"></tspan></text></g></g><g class="edgeLabel" transform="translate(755.6190910339355, 1291.973331451416)"><g class="label" transform="translate(-101.4375, -11.5)"><g><rect class="background" style="" x="-2" y="-1" width="202.875" height="23"></rect><text y="-10.1" style=""><tspan class="text-outer-tspan" x="0" y="-0.1em" dy="1.1em"><tspan font-style="normal" class="text-inner-tspan" font-weight="normal">acima</tspan><tspan font-style="normal" class="text-inner-tspan" font-weight="normal"> do</tspan><tspan font-style="normal" class="text-inner-tspan" font-weight="normal"> limite</tspan><tspan font-style="normal" class="text-inner-tspan" font-weight="normal"> de</tspan><tspan font-style="normal" class="text-inner-tspan" font-weight="normal"> revisões</tspan></tspan></text></g></g></g></g><g class="nodes"><g class="node default  " id="flowchart-S-0" transform="translate(452.8624725341797, 24.5)"><rect class="basic label-container" style="" rx="16.5" ry="16.5" x="-89.40625" y="-16.5" width="178.8125" height="33"></rect><g class="label" style="" transform="translate(0, -9.5)"><rect></rect><g><rect class="background" style="stroke: none"></rect><text y="-10.1" style=""><tspan class="text-outer-tspan" x="0" y="-0.1em" dy="1.1em"><tspan font-style="normal" class="text-inner-tspan" font-weight="normal">assess_risk</tspan><tspan font-style="normal" class="text-inner-tspan" font-weight="normal"> concluído</tspan></tspan></text></g></g></g><g class="node default  " id="flowchart-Q1-1" transform="translate(452.8624725341797, 240.35311889648438)"><polygon points="144.3531265258789,0 288.7062530517578,-144.3531265258789 144.3531265258789,-288.7062530517578 0,-144.3531265258789" class="label-container" transform="translate(-144.3531265258789,144.3531265258789)"></polygon><g class="label" style="" transform="translate(0, -35.900001525878906)"><rect></rect><g><rect class="background" style="stroke: none"></rect><text y="-10.1" style=""><tspan class="text-outer-tspan" x="0" y="-0.1em" dy="1.1em"><tspan font-style="normal" class="text-inner-tspan" font-weight="normal">Operação</tspan><tspan font-style="normal" class="text-inner-tspan" font-weight="normal"> é</tspan><tspan font-style="normal" class="text-inner-tspan" font-weight="normal"> DROP/ALTER</tspan><tspan font-style="normal" class="text-inner-tspan" font-weight="normal"> e</tspan></tspan><tspan class="text-outer-tspan" x="0" y="1em" dy="1.1em"><tspan font-style="normal" class="text-inner-tspan" font-weight="normal">alguma</tspan><tspan font-style="normal" class="text-inner-tspan" font-weight="normal"> fonte</tspan><tspan font-style="normal" class="text-inner-tspan" font-weight="normal"> de</tspan></tspan><tspan class="text-outer-tspan" x="0" y="2.1em" dy="1.1em"><tspan font-style="normal" class="text-inner-tspan" font-weight="normal">dependência/uso</tspan><tspan font-style="normal" class="text-inner-tspan" font-weight="normal"> ficou</tspan></tspan><tspan class="text-outer-tspan" x="0" y="3.2em" dy="1.1em"><tspan font-style="normal" class="text-inner-tspan" font-weight="normal">UNAVAILABLE?</tspan></tspan></text></g></g></g><g class="node default  " id="flowchart-INV-3" transform="translate(324.7218475341797, 495.0062370300293)"><rect class="basic label-container" style="" x="-104.8359375" y="-32.29999923706055" width="209.671875" height="64.5999984741211"></rect><g class="label" style="" transform="translate(0, -18.299999237060547)"><rect></rect><g><rect class="background" style="stroke: none"></rect><text y="-10.1" style=""><tspan class="text-outer-tspan" x="0" y="-0.1em" dy="1.1em"><tspan font-style="normal" class="text-inner-tspan" font-weight="normal">investigate:</tspan><tspan font-style="normal" class="text-inner-tspan" font-weight="normal"> agente</tspan><tspan font-style="normal" class="text-inner-tspan" font-weight="normal"> lê</tspan></tspan><tspan class="text-outer-tspan" x="0" y="1em" dy="1.1em"><tspan font-style="normal" class="text-inner-tspan" font-weight="normal">as</tspan><tspan font-style="normal" class="text-inner-tspan" font-weight="normal"> tools</tspan><tspan font-style="normal" class="text-inner-tspan" font-weight="normal"> de</tspan><tspan font-style="normal" class="text-inner-tspan" font-weight="normal"> novo</tspan></tspan></text></g></g></g><g class="node default  " id="flowchart-RC-4" transform="translate(452.8624725341797, 614.6062355041504)"><rect class="basic label-container" style="" x="-114.015625" y="-32.29999923706055" width="228.03125" height="64.5999984741211"></rect><g class="label" style="" transform="translate(0, -18.299999237060547)"><rect></rect><g><rect class="background" style="stroke: none"></rect><text y="-10.1" style=""><tspan class="text-outer-tspan" x="0" y="-0.1em" dy="1.1em"><tspan font-style="normal" class="text-inner-tspan" font-weight="normal">recommend:</tspan><tspan font-style="normal" class="text-inner-tspan" font-weight="normal"> LLM</tspan><tspan font-style="normal" class="text-inner-tspan" font-weight="normal"> redige</tspan></tspan><tspan class="text-outer-tspan" x="0" y="1em" dy="1.1em"><tspan font-style="normal" class="text-inner-tspan" font-weight="normal">disposição</tspan></tspan></text></g></g></g><g class="node default  " id="flowchart-Q2-8" transform="translate(205.82967376708984, 790.4921722412109)"><polygon points="88.5859375,0 177.171875,-88.5859375 88.5859375,-177.171875 0,-88.5859375" class="label-container" transform="translate(-88.5859375,88.5859375)"></polygon><g class="label" style="" transform="translate(0, -9.5)"><rect></rect><g><rect class="background" style="stroke: none"></rect><text y="-10.1" style=""><tspan class="text-outer-tspan" x="0" y="-0.1em" dy="1.1em"><tspan font-style="normal" class="text-inner-tspan" font-weight="normal">Categoria</tspan><tspan font-style="normal" class="text-inner-tspan" font-weight="normal"> de</tspan><tspan font-style="normal" class="text-inner-tspan" font-weight="normal"> risco</tspan></tspan></text></g></g></g><g class="node default  " id="flowchart-FIN1-10" transform="translate(97.84375, 982.3781089782715)"><polygon points="0,0 163.6875,0 163.6875,-50.599998474121094 0,-50.599998474121094 0,0 -8,0 171.6875,0 171.6875,-50.599998474121094 -8,-50.599998474121094 -8,0" class="label-container" transform="translate(-81.84375,25.299999237060547)"></polygon><g class="label" style="" transform="translate(0, -18.299999237060547)"><rect></rect><g><rect class="background" style="stroke: none"></rect><text y="-10.1" style=""><tspan class="text-outer-tspan" x="0" y="-0.1em" dy="1.1em"><tspan font-style="normal" class="text-inner-tspan" font-weight="normal">AUTO_FINALIZED</tspan></tspan><tspan class="text-outer-tspan" x="0" y="1em" dy="1.1em"><tspan font-style="normal" class="text-inner-tspan" font-weight="normal">sem</tspan><tspan font-style="normal" class="text-inner-tspan" font-weight="normal"> revisão</tspan><tspan font-style="normal" class="text-inner-tspan" font-weight="normal"> humana</tspan></tspan></text></g></g></g><g class="node default  " id="flowchart-HR-12" transform="translate(313.8155975341797, 982.3781089782715)"><rect class="basic label-container" style="" x="-81.12809753417969" y="-23.5" width="162.25619506835938" height="47"></rect><g class="label" style="" transform="translate(0, -9.5)"><rect></rect><g><rect class="background" style="stroke: none"></rect><text y="-10.1" style=""><tspan class="text-outer-tspan" x="0" y="-0.1em" dy="1.1em"><tspan font-style="normal" class="text-inner-tspan" font-weight="normal">human_review</tspan></tspan></text></g></g></g><g class="node default  " id="flowchart-Q3-14" transform="translate(383.3390350341797, 1153.4257202148438)"><polygon points="90.74761199951172,0 181.49522399902344,-90.74761199951172 90.74761199951172,-181.49522399902344 0,-90.74761199951172" class="label-container" transform="translate(-90.74761199951172,90.74761199951172)"></polygon><g class="label" style="" transform="translate(0, -9.5)"><rect></rect><g><rect class="background" style="stroke: none"></rect><text y="-10.1" style=""><tspan class="text-outer-tspan" x="0" y="-0.1em" dy="1.1em"><tspan font-style="normal" class="text-inner-tspan" font-weight="normal">Decisão</tspan><tspan font-style="normal" class="text-inner-tspan" font-weight="normal"> do</tspan><tspan font-style="normal" class="text-inner-tspan" font-weight="normal"> revisor</tspan></tspan></text></g></g></g><g class="node default  " id="flowchart-FIN2-16" transform="translate(176.404296875, 1372.073329925537)"><polygon points="0,0 90.0625,0 90.0625,-33 0,-33 0,0 -8,0 98.0625,0 98.0625,-33 -8,-33 -8,0" class="label-container" transform="translate(-45.03125,16.5)"></polygon><g class="label" style="" transform="translate(0, -9.5)"><rect></rect><g><rect class="background" style="stroke: none"></rect><text y="-10.1" style=""><tspan class="text-outer-tspan" x="0" y="-0.1em" dy="1.1em"><tspan font-style="normal" class="text-inner-tspan" font-weight="normal">APPROVED</tspan></tspan></text></g></g></g><g class="node default  " id="flowchart-FIN3-18" transform="translate(323.099609375, 1372.073329925537)"><polygon points="0,0 81.328125,0 81.328125,-33 0,-33 0,0 -8,0 89.328125,0 89.328125,-33 -8,-33 -8,0" class="label-container" transform="translate(-40.6640625,16.5)"></polygon><g class="label" style="" transform="translate(0, -9.5)"><rect></rect><g><rect class="background" style="stroke: none"></rect><text y="-10.1" style=""><tspan class="text-outer-tspan" x="0" y="-0.1em" dy="1.1em"><tspan font-style="normal" class="text-inner-tspan" font-weight="normal">REJECTED</tspan></tspan></text></g></g></g><g class="node default  " id="flowchart-BACK-22" transform="translate(539.4003410339355, 1372.073329925537)"><rect class="basic label-container" style="" x="-95.2109375" y="-32.29999923706055" width="190.421875" height="64.5999984741211"></rect><g class="label" style="" transform="translate(0, -18.299999237060547)"><rect></rect><g><rect class="background" style="stroke: none"></rect><text y="-10.1" style=""><tspan class="text-outer-tspan" x="0" y="-0.1em" dy="1.1em"><tspan font-style="normal" class="text-inner-tspan" font-weight="normal">reassess:</tspan><tspan font-style="normal" class="text-inner-tspan" font-weight="normal"> re-coleta</tspan></tspan><tspan class="text-outer-tspan" x="0" y="1em" dy="1.1em"><tspan font-style="normal" class="text-inner-tspan" font-weight="normal">e</tspan><tspan font-style="normal" class="text-inner-tspan" font-weight="normal"> re-avalia</tspan><tspan font-style="normal" class="text-inner-tspan" font-weight="normal"> o</tspan><tspan font-style="normal" class="text-inner-tspan" font-weight="normal"> risco</tspan></tspan></text></g></g></g><g class="node default  " id="flowchart-FIN4-25" transform="translate(755.6190910339355, 1372.073329925537)"><polygon points="0,0 136.015625,0 136.015625,-50.599998474121094 0,-50.599998474121094 0,0 -8,0 144.015625,0 144.015625,-50.599998474121094 -8,-50.599998474121094 -8,0" class="label-container" transform="translate(-68.0078125,25.299999237060547)"></polygon><g class="label" style="" transform="translate(0, -18.299999237060547)"><rect></rect><g><rect class="background" style="stroke: none"></rect><text y="-10.1" style=""><tspan class="text-outer-tspan" x="0" y="-0.1em" dy="1.1em"><tspan font-style="normal" class="text-inner-tspan" font-weight="normal">finalize</tspan></tspan><tspan class="text-outer-tspan" x="0" y="1em" dy="1.1em"><tspan font-style="normal" class="text-inner-tspan" font-weight="normal">guarda</tspan><tspan font-style="normal" class="text-inner-tspan" font-weight="normal"> anti-loop</tspan></tspan></text></g></g></g></g></g></g></svg>